# xmcd
#
# Track frame offsets:
#	150
#	19677
#	33191
#	48699
#	64598
#	76832
#	90869
#	108623
#	124758
#	140441
#
# Disc length: 2039 seconds
#
# Revision: 0
# Processed by: cddbd v1.4PL0 Copyright (c) Steve Scherf et al.
# Submitted via: dBpowerAMP V4.0
#
DISCID=7707f50a
DTITLE=Kenny Robbins - No 4-Wheelers
DYEAR=2003
DGENRE=Country Gospel
TTITLE0=Country Road 9
TTITLE1=Just Down the Road
TTITLE2=Things Change
TTITLE3=Sisters of the Road
TTITLE4=No 4-Wheelers
TTITLE5=Jealous of Myself
TTITLE6=Together Destiny
TTITLE7=Between 2 Rusty Nails
TTITLE8=Prayer Behind the Wheel
TTITLE9=Joy of the Lord
EXTD=Country Gospel Hall of Fame Singer
EXTT0=
EXTT1=
EXTT2=
EXTT3=
EXTT4=
EXTT5=
EXTT6=
EXTT7=
EXTT8=
EXTT9=
PLAYORDER=
